<svg xmlns="http://www.w3.org/2000/svg" width="480" height="480" viewBox="0 0 480 480">
  <path d="M12 130V28q0-16 16-16h104M348 12h104q16 0 16 16v102" fill="none" stroke="#E8A06F" stroke-opacity=".3" stroke-width="2"/>
  <path d="m27 42 8-29 26 25M453 42l-8-29-26 25" fill="#773A2C" fill-opacity=".38" stroke="#E8A06F" stroke-opacity=".32" stroke-width="2"/>
  <path d="M12 97h67M12 108h53M401 97h67M415 108h53" stroke="#F7ECE2" stroke-opacity=".18" stroke-width="2" stroke-linecap="round"/>
  <path d="M468 357v95q0 16-16 16h-97M125 468H28q-16 0-16-16v-93" fill="none" stroke="#79A99B" stroke-opacity=".32" stroke-width="2"/>
  <path d="M397 467c44-3 62-27 43-48-13-15-37-2-28 16 8 15 40 8 55-8" fill="none" stroke="#E8A06F" stroke-opacity=".36" stroke-width="5" stroke-linecap="round"/>
  <g fill="#D99086" fill-opacity=".38"><circle cx="43" cy="425" r="8"/><circle cx="29" cy="413" r="5"/><circle cx="43" cy="406" r="5"/><circle cx="57" cy="413" r="5"/></g>
</svg>
