<svg xmlns="http://www.w3.org/2000/svg" width="480" height="480" viewBox="0 0 480 480">
  <path d="M480 480H205c73-38 119-88 151-149 28-53 68-92 124-117Z" fill="#49372D" fill-opacity=".54"/>
  <path d="M470 326v124q0 20-20 20H318" fill="none" stroke="#E8A06F" stroke-opacity=".30" stroke-width="2.5" stroke-linecap="round"/>
  <path d="M470 306c-58 0-83 18-111 55" fill="none" stroke="#79A99B" stroke-opacity=".25" stroke-width="2" stroke-linecap="round"/>

  <path d="M286 377c0-52 42-91 98-91 47 0 82 31 82 76 0 57-50 91-114 79-42-8-66-29-66-64Z"
    fill="#30251F" fill-opacity=".90" stroke="#E8A06F" stroke-opacity=".40" stroke-width="3"/>
  <path d="M296 365c10-42 47-69 91-69-4 23-18 46-40 63-17 13-34 17-51 6Z" fill="#E8A06F" fill-opacity=".24"/>
  <path d="M389 298c32 3 58 25 67 55-26 9-48 4-65-16-11-13-12-26-2-39Z" fill="#120F0D" fill-opacity=".42"/>
  <path d="M301 358 287 318l42 20m85-30 33-24-4 45" fill="#30251F" fill-opacity=".92" stroke="#E8A06F" stroke-opacity=".38" stroke-width="3" stroke-linejoin="round"/>
  <path d="M369 325c-18 8-32 23-37 43 21-5 40-5 58 1-2-19-9-34-21-44Z" fill="#F7ECE2" fill-opacity=".64"/>
  <path d="M330 375c7-5 15-5 22 0m35 0c7-5 15-5 22 0" fill="none" stroke="#F7ECE2" stroke-opacity=".58" stroke-width="3.5" stroke-linecap="round"/>
  <path d="m370 384-6 5 6 5 6-5Z" fill="#E39A8F" fill-opacity=".76"/>
  <path d="M370 394c-1 7-6 10-12 10m12-10c1 7 6 10 12 10" fill="none" stroke="#E8A06F" stroke-opacity=".44" stroke-width="2.5" stroke-linecap="round"/>
  <path d="M292 411c-24 15-25 42-2 51 31 13 74-3 92-30 12-18 7-38-8-42-13-3-22 11-15 21 7 10 25 4 35-8"
    fill="none" stroke="#E8A06F" stroke-opacity=".44" stroke-width="7" stroke-linecap="round"/>

  <path d="M252 429c34-12 70-10 104 8 34-18 70-20 104-8l-5 35c-34-8-66-4-99 12-33-16-65-20-99-12Z"
    fill="#241C18" fill-opacity=".96" stroke="#E8A06F" stroke-opacity=".36" stroke-width="3" stroke-linejoin="round"/>
  <path d="M356 438v38M270 443c26-5 50-1 73 9m99-9c-26-5-50-1-73 9" fill="none" stroke="#B7A397" stroke-opacity=".24" stroke-width="2" stroke-linecap="round"/>

  <g fill="#E39A8F" fill-opacity=".36">
    <ellipse cx="250" cy="331" rx="9" ry="11" transform="rotate(26 250 331)"/>
    <circle cx="232" cy="316" r="4.5"/><circle cx="244" cy="309" r="4.5"/><circle cx="258" cy="311" r="4.5"/>
  </g>
  <g fill="#E8A06F" fill-opacity=".24"><circle cx="425" cy="251" r="4"/><circle cx="447" cy="269" r="2.5"/><circle cx="454" cy="239" r="2"/></g>
</svg>
