<svg xmlns="http://www.w3.org/2000/svg" width="64" height="64" viewBox="0 0 64 64">
  <circle cx="32" cy="32" r="27" fill="#E3E9E6" stroke="#B4935C" stroke-width="2"/>
  <circle cx="32" cy="32" r="22" fill="none" stroke="#607F79" stroke-width="1" opacity=".72"/>
  <path d="M48 10C36 13 22 23 16 42c8-7 16-13 27-16-8 5-13 11-17 19 11-8 18-18 22-35Z" fill="#607F79" opacity=".92"/>
  <path d="M17 46 49 13M22 41l-6-2m13-5-8-5m15-2-6-7" fill="none" stroke="#F7F3EA" stroke-width="1.5" stroke-linecap="round"/>
  <path d="m45 39 8 8-3 3-8-8 3-3Zm-4-3 3 3-13 13-5 2 2-5 13-13Z" fill="#9C4F62"/>
  <text x="20" y="37" fill="#302C31" font-size="21" font-family="serif" font-weight="700">鸾</text>
</svg>
